<svg viewBox="0 0 1128 1128" xmlns="http://www.w3.org/2000/svg">
  <rect width="1128" height="1128" fill="#000"/>
  <g transform="translate(169,407) scale(0.7)">
    <path d="M0 44.3145C2.79955 44.3145 5.47313 44.2305 8.20269 44.2305H89.6697V441.067H0V44.3145Z" fill="white"/>
    <path d="M235.13 440.93H147.882V136.143H235.032V188.621C235.493 188.185 235.924 187.717 236.32 187.221C253.859 157.91 279.867 141.126 313.307 135.121C327.568 132.491 342.128 131.874 356.56 133.287C405.413 138.229 437.747 170.242 448.4 212.529C451.312 224.685 452.722 237.152 452.599 249.651C452.599 312.473 452.599 375.285 452.599 438.089V440.888H365.183V437.865C365.183 383.162 365.183 328.468 365.183 273.783C365.183 259.519 362.09 246.039 353.355 234.351C344.186 222.089 331.742 215.482 316.737 213.271C303.757 211.183 290.454 212.633 278.229 217.47C258.632 225.351 246.678 240.356 239.861 259.869C236.6 269.692 235.019 279.994 235.186 290.342C235.186 339.409 235.186 388.471 235.186 437.529L235.13 440.93Z" fill="white"/>
    <path d="M684.678 360.018C687.03 368.234 689.325 376.143 691.565 384.066C695.134 396.664 698.564 409.262 702.273 421.86C702.422 422.165 702.504 422.499 702.513 422.839C702.521 423.179 702.457 423.517 702.325 423.83C702.192 424.143 701.994 424.424 701.744 424.654C701.493 424.884 701.197 425.058 700.873 425.163C685.426 433.847 668.565 439.733 651.069 442.548C640.716 444.4 630.201 445.202 619.686 444.942C595.694 444.2 573.704 437.831 555.297 421.622C542.153 410.046 534.3 395.446 530.409 378.551C528.363 369.361 527.368 359.969 527.441 350.555C527.441 304.727 527.441 258.898 527.441 213.069V209.598H485.168V149.687H527.301V65.7988H614.227V149.449H696.926V210.27H614.339V213.223C614.339 254.405 614.255 295.586 614.437 336.781C614.479 342.225 615.222 347.64 616.649 352.893C619.882 364.889 628.715 371.272 641.159 371.342C655.703 371.426 669.155 367.143 682.2 361.151L684.678 360.018Z" fill="white"/>
    <path d="M913.148 20.4062H999.935V440.913H913.148V20.4062Z" fill="white"/>
    <path d="M752.974 136.111H840.04V440.969H752.974V136.111Z" fill="white"/>
    <path d="M843.537 46.8084C843.537 66.2653 837.518 80.403 823.114 90.2015C813.316 96.8504 802.314 98.6841 790.668 97.5923C774.36 96.0525 762.49 87.7939 754.651 73.6701C749.206 63.8717 748.045 53.2194 749.248 42.1752C750.156 31.625 754.669 21.7091 762.028 14.0957C771.113 4.74516 782.325 0.48984 795.245 0.405853C814.114 0.279874 828.728 7.79664 837.98 24.566C841.704 31.383 843.617 39.0411 843.537 46.8084Z" fill="white"/>
    <path d="M1082.81 449.096C1059.01 449.712 1038.43 429.499 1038.82 404.471C1039.05 392.847 1043.84 381.777 1052.15 373.645C1060.46 365.513 1071.63 360.97 1083.25 360.994C1089.12 360.996 1094.93 362.174 1100.33 364.459C1105.74 366.745 1110.63 370.091 1114.71 374.3C1118.8 378.509 1122 383.496 1124.13 388.964C1126.26 394.433 1127.27 400.272 1127.09 406.137C1126.53 429.975 1106.43 449.698 1082.81 449.096ZM1083.17 365.474C1077.97 365.405 1072.8 366.372 1067.98 368.32C1063.15 370.268 1058.77 373.156 1055.07 376.817C1051.37 380.479 1048.44 384.839 1046.45 389.645C1044.46 394.45 1043.44 399.605 1043.46 404.807C1043.35 427.316 1060.62 444.925 1082.65 444.939C1087.9 444.978 1093.09 443.974 1097.95 441.985C1102.8 439.996 1107.21 437.061 1110.91 433.353C1114.62 429.644 1117.55 425.235 1119.54 420.383C1121.53 415.53 1122.53 410.331 1122.49 405.087C1122.49 382.747 1105.34 365.474 1083.14 365.474H1083.17Z" fill="white"/>
    <path d="M1065.31 381.12C1073.8 381.12 1082.1 380.462 1090.31 381.302C1098.51 382.142 1103.11 387.111 1103.56 394.306C1103.94 400.409 1101.83 406.316 1092.97 409.592L1105.23 426.865C1101.59 426.865 1098.42 426.935 1095.26 426.865C1094.71 426.865 1094.11 426.011 1093.71 425.465C1090.73 421.266 1087.74 417.066 1084.87 412.867C1084.54 412.258 1084.03 411.762 1083.41 411.441C1082.79 411.12 1082.1 410.988 1081.4 411.061C1079.02 411.173 1076.63 411.061 1073.96 411.061V426.767H1065.31V381.12ZM1074 403.209C1078.53 403.209 1082.83 403.335 1087.11 403.209C1088.95 403.244 1090.74 402.59 1092.12 401.376C1093.51 400.161 1094.39 398.473 1094.59 396.644C1094.72 395.776 1094.67 394.892 1094.45 394.044C1094.23 393.195 1093.85 392.398 1093.32 391.7C1092.79 391.003 1092.12 390.418 1091.36 389.981C1090.6 389.544 1089.76 389.263 1088.89 389.155C1084.02 388.679 1079.09 389.029 1074 389.029V403.209Z" fill="white"/>
  </g>
</svg>
