<?xml version="1.0" encoding="utf-8"?>
<svg viewBox="-15.531 0 103.065 103.065" xmlns="http://www.w3.org/2000/svg">
  <style>
    * {
      fill: #000;
    }
    @media (prefers-color-scheme: dark) {
      * { fill: #fff; }
    }
  </style>
  <circle cx="36.103" cy="36.165" r="10.4"/>
  <path d="M 72.003 36.165 C 72.089 8.453 42.142 -8.961 18.1 4.822 C -2.505 16.633 -6.227 44.808 10.603 61.565 L 19.703 52.565 C 7.06 39.952 12.812 18.381 30.057 13.739 C 47.303 9.096 63.107 24.863 58.505 42.119 C 56.396 50.027 50.277 56.238 42.403 58.465 L 42.403 58.465 L 39.903 58.965 L 38.903 59.165 L 32.803 59.165 L 31.403 58.965 L 31.303 58.965 L 29.903 58.565 L 29.703 58.565 L 29.703 103.065 L 42.403 103.065 L 42.403 71.565 C 59.508 68.434 71.95 53.554 72.003 36.165 Z"/>
</svg>